<svg width="20" height="20" viewBox="0 0 20 20" fill="none" xmlns="http://www.w3.org/2000/svg">
<path d="M15.4263 8.39754C15.4263 9.0131 14.9057 9.51211 14.2635 9.51211C13.6213 9.51211 13.1007 9.0131 13.1007 8.39754C13.1007 7.78199 13.6213 7.28298 14.2635 7.28298C14.9057 7.28298 15.4263 7.78199 15.4263 8.39754Z" fill="black"/>
<path fill-rule="evenodd" clip-rule="evenodd" d="M15.0302 4.61035C14.1471 4.49655 13.0187 4.49656 11.5941 4.49657H8.40584C6.98122 4.49656 5.85282 4.49655 4.96971 4.61035C4.06086 4.72748 3.32524 4.97425 2.74511 5.53032C2.16498 6.08639 1.90753 6.7915 1.78534 7.66266C1.6666 8.50914 1.66661 9.59074 1.66663 10.9563V11.0401C1.66661 12.4056 1.6666 13.4872 1.78534 14.3337C1.90753 15.2049 2.16498 15.91 2.74511 16.4661C3.32524 17.0221 4.06085 17.2689 4.96971 17.386C5.85282 17.4998 6.98122 17.4998 8.40584 17.4998H11.5941C13.0187 17.4998 14.1471 17.4998 15.0302 17.386C15.9391 17.2689 16.6747 17.0221 17.2548 16.4661C17.8349 15.91 18.0924 15.2049 18.2146 14.3337C18.3333 13.4872 18.3333 12.4056 18.3333 11.0401V10.9563C18.3333 9.59074 18.3333 8.50914 18.2146 7.66266C18.0924 6.7915 17.8349 6.08639 17.2548 5.53032C16.6747 4.97425 15.9391 4.72748 15.0302 4.61035ZM5.12465 5.71498C4.34473 5.81549 3.8954 6.00397 3.56733 6.31844C3.23926 6.6329 3.04261 7.0636 2.93776 7.81117C2.85365 8.41079 2.83483 9.16023 2.83062 10.1405L3.22299 9.81143C4.15975 9.02576 5.57159 9.07082 6.45175 9.91448L9.77712 13.1019C10.1101 13.4211 10.6342 13.4646 11.0195 13.2051L11.2506 13.0494C12.3594 12.3025 13.8595 12.389 14.8668 13.258L16.8732 14.9888C16.9552 14.7688 17.0171 14.5062 17.0622 14.1852C17.1693 13.4216 17.1705 12.415 17.1705 10.9982C17.1705 9.58134 17.1693 8.57477 17.0622 7.81117C16.9573 7.0636 16.7607 6.6329 16.4326 6.31844C16.1045 6.00397 15.6552 5.81549 14.8753 5.71498C14.0786 5.61232 13.0285 5.61113 11.5503 5.61113H8.44957C6.97142 5.61113 5.92129 5.61232 5.12465 5.71498Z" fill="black"/>
<path d="M14.2386 2.1753C13.5221 2.08329 12.6098 2.0833 11.4726 2.08331H8.89785C7.76066 2.0833 6.84841 2.08329 6.13191 2.1753C5.38993 2.27059 4.7713 2.47361 4.28064 2.94227C3.99767 3.21256 3.80709 3.52358 3.67728 3.87438C4.09745 3.68272 4.57249 3.56977 5.10584 3.50068C6.00948 3.38362 7.16412 3.38363 8.62187 3.38364H11.8843C13.342 3.38363 14.4966 3.38362 15.4003 3.50068C15.8661 3.56102 16.2875 3.65482 16.6666 3.8053C16.5378 3.48262 16.3541 3.19469 16.0898 2.94227C15.5992 2.47361 14.9805 2.27059 14.2386 2.1753Z" fill="black"/>
</svg>
