<svg width="20" height="20" viewBox="0 0 20 20" fill="none" xmlns="http://www.w3.org/2000/svg">
<circle cx="10" cy="10" r="2.5" stroke="black" stroke-width="1.5"/>
<path d="M11.4712 1.79355C11.1649 1.66669 10.7766 1.66669 10 1.66669C9.22346 1.66669 8.83518 1.66669 8.52889 1.79355C8.12051 1.96271 7.79605 2.28717 7.6269 2.69555C7.54968 2.88197 7.51946 3.09877 7.50763 3.41501C7.49026 3.87975 7.25192 4.30993 6.84916 4.54246C6.4464 4.77499 5.9547 4.7663 5.54354 4.54899C5.26375 4.4011 5.06088 4.31887 4.86082 4.29253C4.42257 4.23484 3.97936 4.3536 3.62867 4.62269C3.36566 4.8245 3.17152 5.16077 2.78323 5.8333C2.39495 6.50583 2.20081 6.84209 2.15754 7.17077C2.09984 7.60902 2.2186 8.05224 2.48769 8.40292C2.61051 8.56298 2.78313 8.69754 3.05103 8.86587C3.44487 9.11334 3.69828 9.5349 3.69826 10C3.69823 10.4651 3.44483 10.8866 3.05103 11.1341C2.78308 11.3024 2.61044 11.437 2.48761 11.5971C2.21852 11.9477 2.09976 12.391 2.15745 12.8292C2.20073 13.1579 2.39487 13.4942 2.78315 14.1667C3.17144 14.8392 3.36558 15.1755 3.62859 15.3773C3.97928 15.6464 4.42249 15.7651 4.86074 15.7074C5.06079 15.6811 5.26364 15.5989 5.54341 15.451C5.9546 15.2337 6.44634 15.225 6.84912 15.4576C7.25191 15.6901 7.49025 16.1203 7.50764 16.5851C7.51946 16.9013 7.54968 17.1181 7.6269 17.3045C7.79605 17.7129 8.12051 18.0373 8.52889 18.2065C8.83518 18.3334 9.22346 18.3334 10 18.3334C10.7766 18.3334 11.1649 18.3334 11.4712 18.2065C11.8795 18.0373 12.204 17.7129 12.3732 17.3045C12.4504 17.1181 12.4806 16.9013 12.4924 16.585C12.5098 16.1203 12.7481 15.6901 13.1509 15.4576C13.5536 15.225 14.0454 15.2336 14.4566 15.451C14.7364 15.5988 14.9392 15.6811 15.1392 15.7074C15.5775 15.7651 16.0207 15.6463 16.3714 15.3772C16.6344 15.1754 16.8285 14.8392 17.2168 14.1666C17.6051 13.4941 17.7993 13.1578 17.8425 12.8292C17.9002 12.3909 17.7815 11.9477 17.5124 11.597C17.3895 11.4369 17.2169 11.3024 16.949 11.134C16.5552 10.8866 16.3018 10.465 16.3018 9.99995C16.3018 9.53489 16.5552 9.11342 16.949 8.86601C17.217 8.69764 17.3896 8.56307 17.5125 8.40298C17.7815 8.05229 17.9003 7.60908 17.8426 7.17083C17.7993 6.84215 17.6052 6.50588 17.2169 5.83335C16.8286 5.16083 16.6345 4.82456 16.3715 4.62274C16.0208 4.35365 15.5776 4.2349 15.1393 4.29259C14.9393 4.31893 14.7364 4.40115 14.4567 4.54902C14.0455 4.76635 13.5537 4.77504 13.1509 4.54249C12.7482 4.30994 12.5098 3.87974 12.4924 3.41497C12.4806 3.09875 12.4504 2.88196 12.3732 2.69555C12.204 2.28717 11.8795 1.96271 11.4712 1.79355Z" stroke="black" stroke-width="1.5"/>
</svg>
